<svg width="57" height="56" viewBox="0 0 57 56" fill="none" xmlns="http://www.w3.org/2000/svg">
<path fill-rule="evenodd" clip-rule="evenodd" d="M23.1659 1.14097C14.7037 2.84397 8.14871 8.04197 4.04834 16.298C-1.18098 26.828 0.327592 38.635 8.02647 47.436C11.8575 51.816 19.4302 56.505 21.0481 55.5C21.5042 55.216 21.8769 53.661 21.8769 52.043C21.8769 49.368 21.5728 49.102 18.5179 49.102C15.7432 49.102 14.5229 48.32 11.4958 44.602C8.30772 40.687 8.08709 40.102 9.80237 40.102C10.8866 40.102 12.5929 41.228 13.5957 42.605C15.5952 45.353 21.5122 47.668 21.5927 45.734C21.6185 45.112 21.9355 43.891 22.2963 43.023C22.7962 41.821 21.9912 41.153 18.9323 40.231C16.6595 39.546 14.2009 37.926 13.2747 36.504C11.0605 33.104 10.3708 25.031 12.0354 21.998C12.7579 20.68 13.223 18.979 13.067 18.218C12.0652 13.313 15.4888 10.606 19.2205 13.352C21.3681 14.932 36.6913 14.757 39.7353 13.118C44.101 10.767 44.74 12.177 46.2983 27.602C46.9621 34.169 44.4399 38.511 39.0108 40.148L35.1808 41.303L35.5534 47.452C36.0772 56.094 36.1467 56.221 39.6717 54.985C44.4359 53.314 51.7701 46.126 54.3082 40.64C57.6672 33.381 57.5847 23.364 54.1085 16.343C48.4757 4.96997 35.5902 -1.36103 23.1659 1.14097Z" fill="#F6F6F6"/>
</svg>
